<svg width="488.15088" height="485.22244" xmlns="http://www.w3.org/2000/svg">

 <g>
  <title>background</title>
  <rect fill="none" id="canvas_background" height="402" width="582" y="-1" x="-1"/>
 </g>
 <g>
  <title>Layer 1</title>
  <g stroke="null" transform="rotate(89.97632598876953 241.07574462890628,244.11151123046875) " id="svg_1">
   <path stroke="param(outline) #000" id="path2985" d="m241.807219,11.495673a36.758707,38.07159 0 0 0 -25.400808,11.075524l-199.361111,205.173424a36.758707,38.07159 0 1 0 51.811999,54.011367l173.342856,-178.429372l172.332424,179.010767a36.758707,38.07159 0 1 0 52.03654,-53.778807l-198.238433,-205.871104a36.758707,38.07159 0 0 0 -26.523467,-11.191799z" stroke-width="param(outline-width) 1" fill="param(fill) #FFF"/>
   <path stroke="param(outline) #000" id="path2985-1" d="m240.447758,194.362616a36.758707,38.07159 0 0 0 -25.400808,11.075524l-199.361121,205.173424a36.758707,38.07159 0 1 0 51.811999,54.011367l173.342865,-178.429362l172.332424,179.010758a36.758707,38.07159 0 1 0 52.03654,-53.778807l-198.238433,-205.871095a36.758707,38.07159 0 0 0 -26.523467,-11.191809z" stroke-width="param(outline-width) 1" fill="param(fill) #FFF"/>
  </g>
 </g>
</svg>