<svg xmlns="http://www.w3.org/2000/svg" viewBox="0 0 217.29 64"><defs><style>.cls-1{fill:#fff;}.cls-2{fill:#14477d;}.cls-3{fill:#aebd37;}</style></defs><title>emsLogo</title><g id="Layer_2" data-name="Layer 2"><g id="Layer_1-2" data-name="Layer 1"><path class="cls-1" d="M100.89,17.6c-8.55,0-14.39,6.49-14.39,15,0,8.8,5.51,15,14.39,15,6.38,0,11-2.86,13.2-9.58h-6.82c-.48,1.76-3,3.69-6.1,3.69-4.31,0-6.71-2.26-6.92-7.21h20.33C115.13,25.74,110.49,17.6,100.89,17.6Zm-6.64,12a6.12,6.12,0,0,1,6.43-6.06c3.77,0,5.45,2.09,6.16,6.06Z"/><path class="cls-1" d="M184.36,29.7c-4.4-1-8.76-1.43-8.76-4.23,0-2.32,2.56-2.65,4.3-2.65,2.78,0,5.07.83,5.29,3.85h7.36a13.38,13.38,0,0,0-.3-1.75c-1.35-5.57-6.53-7.32-12.13-7.32h-.83c-5.78.17-11.45,2.19-11.45,9.13,0,5,4.48,6.6,8.95,7.59,5.56,1.21,8.78,2,8.78,4.4,0,2.75-2.84,3.64-5.06,3.64-3.07,0-5.9-1.38-6-4.79h-7.36c.33,7.54,6.7,10,13.26,10s12.85-2.43,12.85-9.91C193.3,32.4,188.9,30.75,184.36,29.7Z"/><path class="cls-1" d="M119.38,18.37V46.82h7.74V30.31c0-5.56,3.71-6.55,5.23-6.55,4.91,0,4.69,3.8,4.69,7.1v16h7.75V31c0-3.57.81-7.21,5.18-7.21s4.74,3.14,4.74,6.94V46.82h7.74v-19c0-7.38-4.3-10.18-10.31-10.18a10.27,10.27,0,0,0-8.51,4.73c-1.51-3.41-4.69-4.73-8.22-4.73a10.16,10.16,0,0,0-8.62,4.62h-.1V18.37Z"/><path class="cls-2" d="M100.68,23.49a6.12,6.12,0,0,0-6.43,6.06h12.59C106.13,25.58,104.45,23.49,100.68,23.49Z"/><path class="cls-2" d="M196.74,0H75V64H196.74c5,0,8.26-3.94,8.26-8.89V9.27C205,4.32,201.79,0,196.74,0ZM101.17,41.71c3.1,0,5.62-1.93,6.1-3.69h6.82c-2.18,6.72-6.82,9.58-13.2,9.58-8.88,0-14.39-6.17-14.39-15,0-8.54,5.84-15,14.39-15,9.6,0,14.24,8.14,13.69,16.9H94.25C94.46,39.45,96.86,41.71,101.17,41.71Zm25.62-19.49a10.16,10.16,0,0,1,8.62-4.62c3.53,0,6.71,1.32,8.22,4.73a10.27,10.27,0,0,1,8.51-4.73c6,0,10.31,2.8,10.31,10.18v19h-7.74V30.7c0-3.8-.33-6.94-4.74-6.94s-5.18,3.64-5.18,7.21V46.82H137v-16c0-3.3.22-7.1-4.69-7.1-1.52,0-5.23,1-5.23,6.55V46.82h-7.74V18.37h7.31v3.85ZM180.45,47.6c-6.56,0-12.93-2.48-13.26-10h7.36c.06,3.41,2.89,4.79,6,4.79,2.22,0,5.06-.89,5.06-3.64,0-2.37-3.22-3.19-8.78-4.4-4.47-1-8.95-2.59-8.95-7.59,0-6.94,5.67-9,11.45-9.13h.83c5.6,0,10.78,1.75,12.13,7.32a13.38,13.38,0,0,1,.3,1.75h-7.36c-.22-3-2.51-3.85-5.29-3.85-1.74,0-4.3.33-4.3,2.65,0,2.8,4.36,3.19,8.76,4.23s8.94,2.7,8.94,8C193.3,45.17,186.87,47.6,180.45,47.6Z"/><path class="cls-2" d="M215.82,11.69a5,5,0,0,1-7.1,0,4.87,4.87,0,0,1-1.46-3.56,4.83,4.83,0,0,1,1.47-3.54,4.83,4.83,0,0,1,3.53-1.46,4.88,4.88,0,0,1,3.56,1.46,4.83,4.83,0,0,1,1.47,3.54A4.85,4.85,0,0,1,215.82,11.69Zm-6.6-6.61A4.2,4.2,0,0,0,208,8.14a4.26,4.26,0,0,0,1.25,3.08,4.31,4.31,0,0,0,6.11,0,4.23,4.23,0,0,0,1.26-3.08,4.2,4.2,0,0,0-1.26-3.06,4.3,4.3,0,0,0-6.1,0Zm2.95.28a4.24,4.24,0,0,1,1.5.2,1.38,1.38,0,0,1,.86,1.4A1.22,1.22,0,0,1,214,8.05a2.09,2.09,0,0,1-.8.26,1.36,1.36,0,0,1,.95.54,1.52,1.52,0,0,1,.3.86v.4c0,.13,0,.26,0,.41a1.1,1.1,0,0,0,.05.29l0,.06h-.9l0,0s0,0,0-.06l0-.18v-.44a1.37,1.37,0,0,0-.52-1.26A2.5,2.5,0,0,0,212,8.71h-.77v2.16h-1V5.36Zm1.05.87A2.66,2.66,0,0,0,212,6h-.83V8h.88A2.65,2.65,0,0,0,213,7.9a.85.85,0,0,0,.57-.86A.86.86,0,0,0,213.22,6.23Z"/><path class="cls-1" d="M32.58,55.55a2.94,2.94,0,1,0,5.88,0V50.11a2.94,2.94,0,1,0-5.88,0Z"/><path class="cls-1" d="M10.32,40.24a3,3,0,0,0,3.76,1.87l5.17-1.68a2.94,2.94,0,1,0-1.81-5.6l-5.18,1.68A3,3,0,0,0,10.32,40.24Z"/><path class="cls-1" d="M10.32,23.86a3,3,0,0,0,1.94,3.73l5.18,1.68a2.94,2.94,0,1,0,1.81-5.6L14.08,22A3,3,0,0,0,10.32,23.86Z"/><path class="cls-1" d="M27.29,15.71l-3.2-4.4a2.94,2.94,0,1,0-4.76,3.46l3.2,4.4a2.94,2.94,0,1,0,4.76-3.46Z"/><path class="cls-1" d="M26.67,44.23a3,3,0,0,0-4.14.7l-3.2,4.4a2.94,2.94,0,1,0,4.76,3.46l3.2-4.4A3,3,0,0,0,26.67,44.23Z"/><path class="cls-1" d="M57,22l-5.17,1.68a2.94,2.94,0,1,0,1.81,5.6l5.18-1.68A2.94,2.94,0,1,0,57,22Z"/><path class="cls-1" d="M57,42.11a2.94,2.94,0,1,0,1.82-5.6L53.6,34.83a2.94,2.94,0,1,0-1.81,5.6Z"/><path class="cls-1" d="M35.52,17a3,3,0,0,0,2.94-3V8.55a2.94,2.94,0,1,0-5.88,0V14A3,3,0,0,0,35.52,17Z"/><path class="cls-1" d="M44.37,19.87a3,3,0,0,0,4.15-.7l3.19-4.4A2.94,2.94,0,1,0,47,11.31l-3.2,4.4A3,3,0,0,0,44.37,19.87Z"/><path class="cls-1" d="M43.75,48.39l3.2,4.4a2.94,2.94,0,1,0,4.76-3.46l-3.19-4.4a2.95,2.95,0,1,0-4.77,3.46Z"/><path class="cls-3" d="M8.26,0C3.21,0,0,4.32,0,9.27V55.11C0,60.06,3.21,64,8.26,64H71V0ZM26.67,19.87a3,3,0,0,1-4.14-.7l-3.2-4.4a2.94,2.94,0,1,1,4.76-3.46l3.2,4.4A3,3,0,0,1,26.67,19.87Zm.62,28.52-3.2,4.4a2.94,2.94,0,1,1-4.76-3.46l3.2-4.4a2.94,2.94,0,1,1,4.76,3.46Zm-8-24.72a2.94,2.94,0,1,1-1.81,5.6l-5.18-1.68A2.94,2.94,0,1,1,14.08,22Zm-7,12.84,5.18-1.68a2.94,2.94,0,1,1,1.81,5.6l-5.17,1.68a2.94,2.94,0,1,1-1.82-5.6Zm23.26,10.6a3,3,0,0,1,2.94,3v5.44a2.94,2.94,0,1,1-5.88,0V50.11A3,3,0,0,1,35.52,47.11ZM32.58,14V8.55a2.94,2.94,0,1,1,5.88,0V14a2.94,2.94,0,1,1-5.88,0ZM44.37,44.23a3,3,0,0,1,4.15.7l3.19,4.4A2.94,2.94,0,1,1,47,52.79l-3.2-4.4A3,3,0,0,1,44.37,44.23Zm-.62-28.52,3.2-4.4a2.94,2.94,0,1,1,4.76,3.46l-3.19,4.4a2.95,2.95,0,1,1-4.77-3.46Zm6.09,21a3,3,0,0,1,3.76-1.87l5.18,1.68A2.94,2.94,0,1,1,57,42.11l-5.17-1.68A3,3,0,0,1,49.84,36.7Zm8.94-9.11L53.6,29.27a2.94,2.94,0,1,1-1.81-5.6L57,22a2.94,2.94,0,1,1,1.82,5.6Z"/><path class="cls-2" d="M32.25,31.25c2.51-1.73,5.32-2,6.27-.64s-.32,3.89-2.83,5.63S10,50.33,10,50.33,29.74,33,32.25,31.25"/></g></g></svg>