<svg xmlns="http://www.w3.org/2000/svg" viewBox="0 0 53.06 72"><defs><style>.cls-1{fill:none;stroke:#aebd37;stroke-linejoin:round;stroke-width:2px;}</style></defs><title>roomwizard</title><g id="Layer_2" data-name="Layer 2"><g id="Layer_1-2" data-name="Layer 1"><path class="cls-1" d="M2.21,60.51A6.66,6.66,0,0,0,7.67,71H45.39a6.67,6.67,0,0,0,5.46-10.49l-16-26.18V7.67H18.2V34.33Z"/><path class="cls-1" d="M41.53,4.33A3.33,3.33,0,0,1,38.2,7.67H14.86a3.34,3.34,0,0,1,0-6.67H38.2A3.33,3.33,0,0,1,41.53,4.33Z"/><line class="cls-1" x1="34.86" y1="14.33" x2="28.2" y2="14.33"/><line class="cls-1" x1="34.86" y1="27.67" x2="28.2" y2="27.67"/><line class="cls-1" x1="34.86" y1="21" x2="24.86" y2="21"/><line class="cls-1" x1="9.86" y1="47.67" x2="43.2" y2="47.67"/><circle class="cls-1" cx="38.2" cy="64.33" r="1.67"/><circle class="cls-1" cx="30.7" cy="55.17" r="0.83"/><circle class="cls-1" cx="18.2" cy="59.33" r="5"/></g></g></svg>